<svg width="14" height="10" viewBox="0 0 14 10" fill="none" xmlns="http://www.w3.org/2000/svg">
<path d="M13 4.1875C13.2083 4.375 13.3646 4.59375 13.4688 4.84375C13.5938 5.09375 13.6562 5.36458 13.6562 5.65625V9.65625H12.3438V8.34375H1.65625V9.65625H0.34375V5.65625C0.34375 5.36458 0.395833 5.09375 0.5 4.84375C0.625 4.59375 0.791667 4.375 1 4.1875V2.34375C1 1.96875 1.08333 1.63542 1.25 1.34375C1.4375 1.03125 1.67708 0.791667 1.96875 0.625C2.28125 0.4375 2.625 0.34375 3 0.34375H5.65625C5.92708 0.34375 6.17708 0.395833 6.40625 0.5C6.63542 0.583333 6.83333 0.697917 7 0.84375C7.16667 0.697917 7.36458 0.583333 7.59375 0.5C7.82292 0.395833 8.07292 0.34375 8.34375 0.34375H11C11.375 0.34375 11.7083 0.4375 12 0.625C12.3125 0.791667 12.5521 1.03125 12.7188 1.34375C12.9062 1.63542 13 1.96875 13 2.34375V4.1875ZM8.34375 1.65625C8.15625 1.65625 7.98958 1.72917 7.84375 1.875C7.71875 2 7.65625 2.15625 7.65625 2.34375V3.65625H11.6562V2.34375C11.6562 2.15625 11.5938 2 11.4688 1.875C11.3438 1.72917 11.1875 1.65625 11 1.65625H8.34375ZM2.34375 2.34375V3.65625H6.34375V2.34375C6.34375 2.15625 6.27083 2 6.125 1.875C6 1.72917 5.84375 1.65625 5.65625 1.65625H3C2.8125 1.65625 2.65625 1.72917 2.53125 1.875C2.40625 2 2.34375 2.15625 2.34375 2.34375ZM1.65625 7H12.3438V5.65625C12.3438 5.48958 12.2708 5.34375 12.125 5.21875C12 5.07292 11.8438 5 11.6562 5H2.34375C2.15625 5 1.98958 5.07292 1.84375 5.21875C1.71875 5.34375 1.65625 5.48958 1.65625 5.65625V7Z" fill="#65665C"/>
</svg>
